<svg width="24" height="24" viewBox="0 0 20 20" fill="none" xmlns="http://www.w3.org/2000/svg">
    <path d="M10 1.667A8.336 8.336 0 0 0 1.667 10c0 4.6 3.733 8.334 8.333 8.334S18.333 14.6 18.333 10 14.6 1.667 10 1.667zM5.892 15.234c.358-.75 2.541-1.484 4.108-1.484 1.567 0 3.758.734 4.108 1.484A6.577 6.577 0 0 1 10 16.667a6.577 6.577 0 0 1-4.108-1.433zm9.408-1.209c-1.192-1.45-4.083-1.941-5.3-1.941-1.217 0-4.108.491-5.3 1.941A6.625 6.625 0 0 1 3.333 10 6.676 6.676 0 0 1 10 3.334 6.675 6.675 0 0 1 16.667 10a6.625 6.625 0 0 1-1.367 4.025zM10 5a2.91 2.91 0 0 0-2.917 2.917A2.91 2.91 0 0 0 10 10.834a2.91 2.91 0 0 0 2.917-2.917A2.91 2.91 0 0 0 10 5zm0 4.167c-.692 0-1.25-.558-1.25-1.25s.558-1.25 1.25-1.25 1.25.558 1.25 1.25-.558 1.25-1.25 1.25z" fill="#161616"/>
</svg>
