<svg width="16" height="16" viewBox="0 0 16 16" fill="none" xmlns="http://www.w3.org/2000/svg">
<path d="M11.0003 3.99984V11.6665C11.0003 13.1398 9.80699 14.3332 8.33366 14.3332C6.86033 14.3332 5.66699 13.1398 5.66699 11.6665V3.33317C5.66699 2.41317 6.41366 1.6665 7.33366 1.6665C8.25366 1.6665 9.00033 2.41317 9.00033 3.33317V10.3332C9.00033 10.6998 8.70033 10.9998 8.33366 10.9998C7.96699 10.9998 7.66699 10.6998 7.66699 10.3332V3.99984H6.66699V10.3332C6.66699 11.2532 7.41366 11.9998 8.33366 11.9998C9.25366 11.9998 10.0003 11.2532 10.0003 10.3332V3.33317C10.0003 1.85984 8.80699 0.666504 7.33366 0.666504C5.86033 0.666504 4.66699 1.85984 4.66699 3.33317V11.6665C4.66699 13.6932 6.30699 15.3332 8.33366 15.3332C10.3603 15.3332 12.0003 13.6932 12.0003 11.6665V3.99984H11.0003Z" fill="#1D84FF"/>
</svg>
