<svg width="20" height="20" viewBox="0 0 20 20" fill="none" xmlns="http://www.w3.org/2000/svg">
<path fill-rule="evenodd" clip-rule="evenodd" d="M7.5 6.25H4.2375C5.89759 3.6987 9.03769 2.54271 11.9558 3.40861C14.8739 4.27451 16.8752 6.95615 16.875 10H18.125C18.1285 6.57532 15.9843 3.51613 12.7639 2.35117C9.54342 1.1862 5.93827 2.16563 3.75 4.8V2.5H2.5V7.5H7.5V6.25ZM12.5 13.75H15.7625C14.1024 16.3013 10.9623 17.4573 8.04423 16.5914C5.12615 15.7255 3.12481 13.0438 3.125 10H1.875C1.87148 13.4247 4.0157 16.4839 7.23614 17.6488C10.4566 18.8138 14.0617 17.8344 16.25 15.2V17.5H17.5V12.5H12.5V13.75Z" fill="#161616"/>
</svg>