<svg width="20" height="20" viewBox="0 0 20 20" fill="none" xmlns="http://www.w3.org/2000/svg">
<g id="Organization / File / paste / 20">
<path id="Fill" fill-rule="evenodd" clip-rule="evenodd" d="M16.25 12.5H11.1438L12.7563 10.8813L11.875 10L8.75 13.125L11.875 16.25L12.7563 15.3688L11.1438 13.75H16.25V18.75H17.5V13.75C17.5 13.0597 16.9404 12.5 16.25 12.5ZM10.4437 1.43126L14.8188 5.80626C14.9357 5.92421 15.001 6.08388 15 6.25001V8.75001H13.75V7.50001H10C9.30964 7.50001 8.75 6.94037 8.75 6.25001V2.50001H3.75V17.5H8.75V18.75H3.75C3.05964 18.75 2.5 18.1904 2.5 17.5V2.50001C2.5 1.80965 3.05964 1.25001 3.75 1.25001H10C10.1661 1.24905 10.3258 1.31427 10.4437 1.43126ZM13.4937 6.25001L10 2.75626V6.25001H13.4937Z" fill="#525252"/>
</g>
</svg>
