<svg width="18" height="18" viewBox="0 0 18 18" fill="none" xmlns="http://www.w3.org/2000/svg">
<path fill-rule="evenodd" clip-rule="evenodd" d="M1.12386 17.4386H17.3739C17.5923 17.439 17.7951 17.3254 17.9088 17.1389C18.0225 16.9524 18.0306 16.72 17.9301 16.5261L9.80511 0.90106C9.69818 0.692331 9.48339 0.561035 9.24886 0.561035C9.01433 0.561035 8.79955 0.692331 8.69261 0.90106L0.56761 16.5261C0.467128 16.72 0.475198 16.9524 0.588897 17.1389C0.702595 17.3254 0.905421 17.439 1.12386 17.4386ZM16.3426 16.1886H2.15511L9.24886 2.54481L16.3426 16.1886ZM9.24756 13.061C8.72979 13.061 8.31006 13.4808 8.31006 13.9985C8.31006 14.5163 8.72979 14.936 9.24756 14.936C9.76533 14.936 10.1851 14.5163 10.1851 13.9985C10.1851 13.4808 9.76533 13.061 9.24756 13.061ZM9.87256 6.18604H8.62256V11.811H9.87256V6.18604Z" fill="#DA1E28"/>
</svg>
