<svg width="16" height="16" viewBox="0 0 16 16" fill="none" xmlns="http://www.w3.org/2000/svg">
    <path d="M1.73 12.41v-1.097c0-.31.08-.575.24-.798.16-.222.376-.4.647-.533a11.123 11.123 0 0 1 1.723-.659c.57-.164 1.255-.246 2.057-.246s1.488.082 2.058.246c.57.164 1.144.383 1.722.658.27.133.486.312.647.534.16.223.24.489.24.798v1.098L1.73 12.41zm10.667 0v-1.128a2.6 2.6 0 0 0-.235-1.094 2.525 2.525 0 0 0-.665-.883c.328.067.643.16.947.278.303.118.603.251.9.4.289.144.515.33.68.557.163.227.245.474.245.742v1.128h-1.872zm-6-4.82c-.55 0-1.02-.196-1.413-.588a1.92 1.92 0 0 1-.586-1.412c0-.55.195-1.021.586-1.413a1.93 1.93 0 0 1 1.414-.587c.55 0 1.02.195 1.412.587.391.392.587.863.587 1.413s-.196 1.02-.587 1.412a1.928 1.928 0 0 1-1.413.588zm4.847-2c0 .55-.196 1.02-.588 1.412a1.93 1.93 0 0 1-1.413.588.737.737 0 0 1-.107-.01.857.857 0 0 1-.108-.021 3.11 3.11 0 0 0 .702-1.971c0-.363-.063-.71-.19-1.04a3.844 3.844 0 0 0-.512-.927.432.432 0 0 1 .108-.026 1.93 1.93 0 0 1 1.52.581c.393.392.589.863.588 1.414zm-8.847 6.153h8v-.43a.72.72 0 0 0-.117-.41c-.078-.118-.219-.23-.422-.337a7.026 7.026 0 0 0-1.573-.61c-.551-.142-1.18-.213-1.888-.213-.707 0-1.337.071-1.889.213a7.042 7.042 0 0 0-1.573.61c-.202.107-.342.22-.42.336a.717.717 0 0 0-.118.41v.431zm4-4.82c.367 0 .68-.13.942-.392.261-.261.392-.575.391-.941 0-.367-.13-.68-.39-.942a1.28 1.28 0 0 0-.943-.391c-.367 0-.68.13-.941.39-.261.262-.392.576-.392.943s.13.68.392.941c.261.261.575.392.941.392z" fill="#1D84FF"/>
</svg>
