<svg width="121" height="24" viewBox="0 0 121 24" fill="none" xmlns="http://www.w3.org/2000/svg">
<path d="M19.879 11.6591C21.3927 11.6591 22.6197 10.4292 22.6197 8.91197C22.6197 7.39478 21.3927 6.16486 19.879 6.16486C18.3654 6.16486 17.1383 7.39478 17.1383 8.91197C17.1383 10.4292 18.3654 11.6591 19.879 11.6591Z" fill="#3374FE"/>
<path d="M0.386784 17.7473C-1.65555 22.633 4.90344 26.3976 8.06895 22.1615C10.0057 19.3422 14.7719 19.335 16.7159 22.1567C17.9326 23.7275 20.4766 24.1509 22.1517 22.9722C23.5941 22.0436 24.3164 20.1673 23.8677 18.5075C23.0037 15.1205 18.5206 14.3002 16.5239 17.1652C14.8919 20.4319 10.1329 18.457 11.4168 14.993C11.46 14.8463 15.4679 6.05646 15.4679 6.05646C15.6695 5.54889 15.7775 4.99562 15.7775 4.41588C15.8567 -0.279718 9.18731 -1.71823 7.30097 2.50589C7.19297 2.63098 0.487581 17.6102 0.389184 17.7473H0.386784Z" fill="white"/>
<path d="M46.2246 19.7244H34V4.646H37.2975V17.1381H46.2246V19.7244Z" fill="white"/>
<path d="M47.0497 14.3831C47.0608 11.1302 49.6025 8.84271 53.0828 8.84271C56.3068 8.84271 58.7615 10.8092 58.7615 14.0398C58.7615 14.4277 58.7258 14.829 58.6522 15.2504H50.1755C50.4074 16.5057 51.812 17.3819 53.3013 17.3819C54.4607 17.3819 55.464 16.8936 56.2198 15.8836L58.4427 17.393C57.3435 19.0585 55.2923 19.957 53.2278 19.957C49.4665 19.957 47.0475 17.4911 47.0475 14.3831H47.0497ZM55.843 13.3397C55.6847 12.1514 54.6101 11.2417 53.1185 11.2417C51.6269 11.2417 50.3962 12.1291 50.2246 13.3397H55.843Z" fill="white"/>
<path d="M61.0667 15.8264V9.06421H64.1925V15.0929C64.1925 16.5689 65.2426 17.3581 66.6115 17.3581C67.9805 17.3581 69.2379 16.5689 69.2379 15.0929V9.06421H72.3638V19.7237H69.3829L69.3227 18.5465C68.7118 19.3023 67.4543 20.0001 65.684 20.0001C62.9729 20.0001 61.0667 18.3904 61.0667 15.8242V15.8264Z" fill="white"/>
<path d="M74.803 14.3714C74.803 11.2501 77.5743 8.80872 81.0569 8.80872C83.2552 8.80872 85.429 9.85214 86.5037 11.852L84.1225 13.2299C83.438 11.997 82.2408 11.4307 81.1059 11.4307C79.2242 11.4307 77.9177 12.7416 77.9177 14.4294C77.9177 16.1172 79.2621 17.3724 81.0569 17.3724C82.3277 17.3724 83.389 16.8284 84.1827 15.5286L86.4412 16.9711C85.3666 18.9152 83.1816 19.9475 80.9811 19.9475C77.4629 19.9475 74.8008 17.4817 74.8008 14.3737L74.803 14.3714Z" fill="white"/>
<path d="M90.2604 3.99988C91.3239 3.99988 92.0686 4.66651 92.0686 5.64305C92.0686 6.61959 91.3239 7.27508 90.2604 7.27508C89.1969 7.27508 88.4656 6.60845 88.4656 5.64305C88.4656 4.67766 89.1992 3.99988 90.2604 3.99988ZM88.7087 19.7226V9.06318H91.8479V19.7226H88.7087Z" fill="white"/>
<path d="M95.1519 19.7229V9.06344H98.1328L98.193 10.2964C98.8039 9.55171 100.061 8.84271 101.807 8.84271C104.518 8.84271 106.436 10.4636 106.436 13.0298V19.7251H103.31V13.7611C103.31 12.2851 102.26 11.4847 100.88 11.4847C99.4995 11.4847 98.2777 12.2851 98.2777 13.7611V19.7251H95.1519V19.7229Z" fill="white"/>
<path d="M108.728 14.3831C108.739 11.1302 111.281 8.84271 114.761 8.84271C117.985 8.84271 120.44 10.8092 120.44 14.0398C120.44 14.4277 120.404 14.829 120.33 15.2504H111.854C112.086 16.5057 113.49 17.3819 114.98 17.3819C116.141 17.3819 117.142 16.8936 117.898 15.8836L120.121 17.393C119.022 19.0585 116.971 19.957 114.906 19.957C111.145 19.957 108.726 17.4911 108.726 14.3831H108.728ZM117.521 13.3397C117.363 12.1514 116.288 11.2417 114.799 11.2417C113.31 11.2417 112.074 12.1291 111.905 13.3397H117.523H117.521Z" fill="white"/>
</svg>
