<svg width="121" height="24" viewBox="0 0 121 24" fill="none" xmlns="http://www.w3.org/2000/svg">
    <path d="M19.879 11.66c1.514 0 2.74-1.23 2.74-2.748a2.744 2.744 0 0 0-2.74-2.747 2.744 2.744 0 0 0-2.74 2.747 2.744 2.744 0 0 0 2.74 2.747z" fill="#3374FE"/>
    <path d="M.387 17.747c-2.043 4.886 4.516 8.65 7.682 4.414 1.937-2.819 6.703-2.826 8.647-.004 1.217 1.57 3.76 1.994 5.436.815 1.442-.928 2.164-2.805 1.716-4.465-.864-3.387-5.347-4.207-7.344-1.342-1.632 3.267-6.391 1.292-5.107-2.172.043-.147 4.05-8.937 4.05-8.937.202-.507.31-1.06.31-1.64.08-4.696-6.59-6.134-8.476-1.91C7.193 2.63.488 17.61.389 17.747H.387zM46.225 19.725H34V4.646h3.297V17.14h8.928v2.586zM47.05 14.383c.01-3.253 2.553-5.54 6.033-5.54 3.224 0 5.678 1.966 5.678 5.197 0 .388-.035.79-.109 1.21h-8.477c.232 1.256 1.637 2.132 3.126 2.132 1.16 0 2.163-.488 2.919-1.498l2.223 1.51c-1.1 1.665-3.15 2.563-5.215 2.563-3.761 0-6.18-2.466-6.18-5.574h.002zm8.793-1.043c-.158-1.189-1.233-2.098-2.725-2.098-1.491 0-2.722.887-2.894 2.098h5.619zM61.067 15.827V9.064h3.125v6.03c0 1.475 1.05 2.264 2.42 2.264 1.369 0 2.626-.789 2.626-2.265V9.064h3.126v10.66h-2.981l-.06-1.177c-.611.755-1.869 1.453-3.639 1.453-2.711 0-4.617-1.61-4.617-4.176v.003zM74.803 14.371c0-3.121 2.771-5.562 6.254-5.562 2.198 0 4.372 1.043 5.447 3.043l-2.382 1.378a3.423 3.423 0 0 0-3.016-1.8c-1.882 0-3.188 1.312-3.188 3 0 1.687 1.344 2.942 3.139 2.942 1.27 0 2.332-.544 3.126-1.844l2.258 1.443c-1.074 1.944-3.26 2.976-5.46 2.976-3.518 0-6.18-2.465-6.18-5.573l.002-.003zM90.26 4c1.064 0 1.809.667 1.809 1.643 0 .977-.745 1.632-1.809 1.632-1.063 0-1.794-.666-1.794-1.632 0-.965.733-1.643 1.794-1.643zM88.71 19.723V9.063h3.139v10.66h-3.14zM95.152 19.723V9.063h2.98l.061 1.233c.61-.744 1.868-1.453 3.614-1.453 2.711 0 4.629 1.62 4.629 4.187v6.695h-3.126v-5.964c0-1.476-1.05-2.276-2.43-2.276-1.38 0-2.602.8-2.602 2.276v5.964h-3.126v-.002zM108.728 14.383c.011-3.253 2.553-5.54 6.033-5.54 3.224 0 5.679 1.966 5.679 5.197 0 .388-.036.79-.11 1.21h-8.476c.232 1.256 1.636 2.132 3.126 2.132 1.161 0 2.162-.488 2.918-1.498l2.223 1.51c-1.099 1.665-3.15 2.563-5.215 2.563-3.761 0-6.18-2.466-6.18-5.574h.002zm8.793-1.043c-.158-1.189-1.233-2.098-2.722-2.098-1.489 0-2.725.887-2.894 2.098h5.618-.002z" fill="#161616"/>
</svg>