<svg width="16" height="16" viewBox="0 0 16 16" fill="none" xmlns="http://www.w3.org/2000/svg">
<path fill-rule="evenodd" clip-rule="evenodd" d="M13 7H12V8H13C13.8281 8.00083 14.4992 8.67192 14.5 9.5V11.5H15.5V9.5C15.4983 8.11997 14.38 7.00165 13 7ZM12 2C12.8284 2 13.5 2.67157 13.5 3.5C13.5 4.32843 12.8284 5 12 5C11.1716 5 10.5 4.32843 10.5 3.5C10.5 2.67157 11.1716 2 12 2ZM12 1C10.6193 1 9.5 2.11929 9.5 3.5C9.5 4.88071 10.6193 6 12 6C13.3807 6 14.5 4.88071 14.5 3.5C14.5 2.83696 14.2366 2.20107 13.7678 1.73223C13.2989 1.26339 12.663 1 12 1ZM11.5 15H10.5V14C10.4992 13.1719 9.82808 12.5008 9 12.5H7C6.17192 12.5008 5.50083 13.1719 5.5 14V15H4.5V14C4.50165 12.62 5.61997 11.5017 7 11.5H9C10.38 11.5017 11.4983 12.62 11.5 14V15ZM8 6.5C8.82843 6.5 9.5 7.17157 9.5 8C9.5 8.82843 8.82843 9.5 8 9.5C7.17157 9.5 6.5 8.82843 6.5 8C6.5 7.17157 7.17157 6.5 8 6.5ZM8 5.5C6.61929 5.5 5.5 6.61929 5.5 8C5.5 9.38071 6.61929 10.5 8 10.5C9.38071 10.5 10.5 9.38071 10.5 8C10.5 6.61929 9.38071 5.5 8 5.5ZM4 7H3C1.61997 7.00165 0.501653 8.11997 0.5 9.5V11.5H1.5V9.5C1.50083 8.67192 2.17192 8.00083 3 8H4V7ZM4 2C4.82843 2 5.5 2.67157 5.5 3.5C5.5 4.32843 4.82843 5 4 5C3.17157 5 2.5 4.32843 2.5 3.5C2.5 2.67157 3.17157 2 4 2ZM4 1C2.61929 1 1.5 2.11929 1.5 3.5C1.5 4.88071 2.61929 6 4 6C5.38071 6 6.5 4.88071 6.5 3.5C6.5 2.83696 6.23661 2.20107 5.76777 1.73223C5.29893 1.26339 4.66304 1 4 1Z" fill="#161616"/>
</svg>
