<svg width="80" height="80" viewBox="0 0 80 80" fill="none" xmlns="http://www.w3.org/2000/svg">
<g clip-path="url(#clip0_708_12697)">
<path d="M54.8482 8.41006C60.3006 10.9943 64.9917 14.9453 68.4654 19.8789C71.9391 24.8125 74.0772 30.561 74.6719 36.5655H79.6605C78.8039 26.591 74.2369 17.3007 66.8622 10.5305C59.4874 3.76019 49.8414 0.00251882 39.8302 0H37.6363L50.3297 12.7979L54.8482 8.41006ZM30.4016 11.5442L68.2991 49.4417L49.2589 68.4819L11.3614 30.5583L30.4016 11.5442ZM30.4016 4.36174C29.0788 4.36253 27.8105 4.88863 26.8756 5.82436L5.66765 27.0323C5.20094 27.496 4.83055 28.0474 4.5778 28.6547C4.32505 29.2621 4.19493 29.9135 4.19493 30.5713C4.19493 31.2292 4.32505 31.8806 4.5778 32.4879C4.83055 33.0953 5.20094 33.6467 5.66765 34.1104L45.7329 74.1756C46.6882 75.0966 47.9582 75.6196 49.285 75.6383C50.6078 75.6375 51.876 75.1114 52.811 74.1756L73.9928 52.9677C74.4627 52.5058 74.8359 51.955 75.0906 51.3474C75.3454 50.7398 75.4766 50.0875 75.4766 49.4287C75.4766 48.7698 75.3454 48.1175 75.0906 47.5099C74.8359 46.9023 74.4627 46.3515 73.9928 45.8897L33.9536 5.82436C33.0187 4.88863 31.7504 4.36253 30.4277 4.36174H30.4016ZM24.8906 71.6161C19.4089 69.0269 14.6932 65.0591 11.2046 60.101C7.71607 55.1429 5.57422 49.3641 4.98857 43.3301H0C0.856605 53.3045 5.42352 62.5948 12.7983 69.3651C20.173 76.1353 29.8191 79.893 39.8302 79.8955H42.0242L29.3307 67.2021L24.8906 71.6161Z" fill="white"/>
</g>
<defs>
<clipPath id="clip0_708_12697">
<rect width="79.6605" height="80" fill="white"/>
</clipPath>
</defs>
</svg>
