<svg width="20" height="20" viewBox="0 0 20 20" fill="none" xmlns="http://www.w3.org/2000/svg">
<g clip-path="url(#clip0_4809_4412)">
<path d="M13.75 14.9999H6.25C5.91848 14.9999 5.60054 14.8682 5.36612 14.6338C5.1317 14.3994 5 14.0815 5 13.7499V11.8749H6.25V13.7499H13.75V11.8749H15V13.7499C15 14.0815 14.8683 14.3994 14.6339 14.6338C14.3995 14.8682 14.0815 14.9999 13.75 14.9999Z" fill="white"/>
<path d="M18.75 9.37494H1.25V10.6249H18.75V9.37494Z" fill="white"/>
<path d="M15 8.12494H13.75V6.24994H6.25V8.12494H5V6.24994C5 5.91842 5.1317 5.60048 5.36612 5.36606C5.60054 5.13164 5.91848 4.99994 6.25 4.99994H13.75C14.0815 4.99994 14.3995 5.13164 14.6339 5.36606C14.8683 5.60048 15 5.91842 15 6.24994V8.12494Z" fill="white"/>
<path d="M18.75 6.25H17.5V2.5H13.75V1.25H18.75V6.25Z" fill="white"/>
<path d="M2.5 6.25H1.25V1.25H6.25V2.5H2.5V6.25Z" fill="white"/>
<path d="M6.25 18.75H1.25V13.75H2.5V17.5H6.25V18.75Z" fill="white"/>
<path d="M18.75 18.75H13.75V17.5H17.5V13.75H18.75V18.75Z" fill="white"/>
</g>
<defs>
<clipPath id="clip0_4809_4412">
<rect width="20" height="20" fill="white"/>
</clipPath>
</defs>
</svg>
