<svg width="48" height="48" viewBox="0 0 48 48" fill="none" xmlns="http://www.w3.org/2000/svg">
<g clip-path="url(#clip0_43_29987)">
<path d="M27 28H21C20.7348 28 20.4804 27.8946 20.2929 27.7071C20.1054 27.5196 20 27.2652 20 27V25.5H21V27H27V25.5H28V27C28 27.2652 27.8946 27.5196 27.7071 27.7071C27.5196 27.8946 27.2652 28 27 28Z" fill="#1D84FF"/>
<path d="M31 23.5H17V24.5H31V23.5Z" fill="#1D84FF"/>
<path d="M28 22.5H27V21H21V22.5H20V21C20 20.7348 20.1054 20.4804 20.2929 20.2929C20.4804 20.1054 20.7348 20 21 20H27C27.2652 20 27.5196 20.1054 27.7071 20.2929C27.8946 20.4804 28 20.7348 28 21V22.5Z" fill="#1D84FF"/>
<path d="M31 21H30V18H27V17H31V21Z" fill="#1D84FF"/>
<path d="M18 21H17V17H21V18H18V21Z" fill="#1D84FF"/>
<path d="M21 31H17V27H18V30H21V31Z" fill="#1D84FF"/>
<path d="M31 31H27V30H30V27H31V31Z" fill="#1D84FF"/>
</g>
<rect x="0.5" y="0.5" width="47" height="47" stroke="#1D84FF"/>
<defs>
<clipPath id="clip0_43_29987">
<rect width="16" height="16" fill="white" transform="translate(16 16)"/>
</clipPath>
</defs>
</svg>
