<svg width="24" height="24" viewBox="0 0 20 20" fill="none" xmlns="http://www.w3.org/2000/svg">
    <g clip-path="url(#ir7zplys9a)">
        <path d="M13.75 15h-7.5A1.25 1.25 0 0 1 5 13.75v-1.875h1.25v1.875h7.5v-1.875H15v1.875A1.25 1.25 0 0 1 13.75 15z" fill="#161616"/>
        <path d="M18.75 9.375H1.25v1.25h17.5v-1.25zM15 8.125h-1.25V6.25h-7.5v1.875H5V6.25A1.25 1.25 0 0 1 6.25 5h7.5A1.25 1.25 0 0 1 15 6.25v1.875zM18.75 6.25H17.5V2.5h-3.75V1.25h5v5zM2.5 6.25H1.25v-5h5V2.5H2.5v3.75zM6.25 18.75h-5v-5H2.5v3.75h3.75v1.25zM18.75 18.75h-5V17.5h3.75v-3.75h1.25v5z" fill="#000"/>
    </g>
    <defs>
        <clipPath id="ir7zplys9a">
            <path fill="#fff" d="M0 0h20v20H0z"/>
        </clipPath>
    </defs>
</svg>
