<svg width="16" height="16" viewBox="0 0 16 16" fill="none" xmlns="http://www.w3.org/2000/svg">
<g id="Icon">
<path id="Fill" fill-rule="evenodd" clip-rule="evenodd" d="M1.792 2.501L2.499 1.794L4.207 3.501L3.5 4.2085L1.792 2.501ZM11.7905 12.496L12.498 11.789L14.205 13.497L13.498 14.204L11.7905 12.496ZM5.5 1H6.5V3H5.5V1ZM1 5.5H3V6.5H1V5.5ZM13 9.5H15V10.5H13V9.5ZM9.5 13H10.5V15H9.5V13ZM8.29 10.535L6.435 12.395C5.92947 12.9005 5.19264 13.098 4.50207 12.9129C3.81151 12.7279 3.27211 12.1885 3.08707 11.4979C2.90204 10.8074 3.09947 10.0705 3.605 9.565L5.465 7.705L4.755 7L2.9 8.86C2.325 9.41966 1.99816 10.1863 1.99252 10.9887C1.98688 11.7911 2.30292 12.5623 2.87 13.13C3.43616 13.6916 4.20259 14.0046 5 14C5.81136 14.0008 6.58924 13.6767 7.16 13.1L9 11.245L8.29 10.535ZM7.705 5.465L9.565 3.605C10.0705 3.09947 10.8074 2.90204 11.4979 3.08707C12.1885 3.27211 12.7279 3.81151 12.9129 4.50207C13.098 5.19264 12.9005 5.92947 12.395 6.435L10.535 8.295L11.245 9L13.1 7.14C13.675 6.58034 14.0018 5.81365 14.0075 5.01127C14.0131 4.20889 13.6971 3.43769 13.13 2.87C12.5638 2.30844 11.7974 1.99539 11 2C10.1886 1.99922 9.41076 2.32334 8.84 2.9L7 4.755L7.705 5.465Z" fill="#DA1E28"/>
</g>
</svg>