<svg width="156" height="128" viewBox="0 0 156 128" fill="none" xmlns="http://www.w3.org/2000/svg">
<path d="M50.6779 52.2589C55.0695 52.2589 58.6297 48.6988 58.6297 44.3071C58.6297 39.9155 55.0695 36.3553 50.6779 36.3553C46.2862 36.3553 42.7261 39.9155 42.7261 44.3071C42.7261 48.6988 46.2862 52.2589 50.6779 52.2589Z" fill="#DADADA"/>
<path d="M129.315 52.2571H68.2453C67.5704 52.2571 66.9232 51.989 66.446 51.5118C65.9688 51.0346 65.7007 50.3874 65.7007 49.7125C65.7007 49.0377 65.9688 48.3905 66.446 47.9133C66.9232 47.4361 67.5704 47.168 68.2453 47.168H129.315C129.99 47.168 130.637 47.4361 131.114 47.9133C131.592 48.3905 131.86 49.0377 131.86 49.7125C131.86 50.3874 131.592 51.0346 131.114 51.5118C130.637 51.989 129.99 52.2571 129.315 52.2571Z" fill="#DADADA"/>
<path d="M112.775 41.4445H68.2448C67.5699 41.4445 66.9227 41.1764 66.4455 40.6992C65.9683 40.222 65.7002 39.5748 65.7002 38.8999C65.7002 38.2251 65.9683 37.5778 66.4455 37.1006C66.9227 36.6234 67.5699 36.3553 68.2448 36.3553H112.775C113.45 36.3553 114.097 36.6234 114.574 37.1006C115.051 37.5778 115.319 38.2251 115.319 38.8999C115.319 39.5748 115.051 40.222 114.574 40.6992C114.097 41.1764 113.45 41.4445 112.775 41.4445Z" fill="#DADADA"/>
<path d="M50.6779 82.4739C55.0695 82.4739 58.6297 78.9138 58.6297 74.5221C58.6297 70.1305 55.0695 66.5703 50.6779 66.5703C46.2862 66.5703 42.7261 70.1305 42.7261 74.5221C42.7261 78.9138 46.2862 82.4739 50.6779 82.4739Z" fill="#DADADA"/>
<path d="M129.315 82.4757H68.2448C67.5699 82.4757 66.9227 82.2077 66.4455 81.7305C65.9683 81.2533 65.7002 80.606 65.7002 79.9312C65.7002 79.2563 65.9683 78.6091 66.4455 78.1319C66.9227 77.6547 67.5699 77.3866 68.2448 77.3866H129.315C129.989 77.3866 130.637 77.6547 131.114 78.1319C131.591 78.6091 131.859 79.2563 131.859 79.9312C131.859 80.606 131.591 81.2533 131.114 81.7305C130.637 82.2077 129.989 82.4757 129.315 82.4757Z" fill="#DADADA"/>
<path d="M112.775 71.6595H68.2453C67.5704 71.6595 66.9232 71.3914 66.446 70.9142C65.9688 70.437 65.7007 69.7897 65.7007 69.1149C65.7007 68.44 65.9688 67.7928 66.446 67.3156C66.9232 66.8384 67.5704 66.5703 68.2453 66.5703H112.775C113.45 66.5703 114.097 66.8384 114.575 67.3156C115.052 67.7928 115.32 68.44 115.32 69.1149C115.32 69.7897 115.052 70.437 114.575 70.9142C114.097 71.3914 113.45 71.6595 112.775 71.6595Z" fill="#DADADA"/>
<path d="M50.6779 113.009C55.0695 113.009 58.6297 109.449 58.6297 105.057C58.6297 100.666 55.0695 97.1055 50.6779 97.1055C46.2862 97.1055 42.7261 100.666 42.7261 105.057C42.7261 109.449 46.2862 113.009 50.6779 113.009Z" fill="#DADADA"/>
<path d="M129.315 113.01H68.2448C67.5699 113.01 66.9227 112.742 66.4455 112.265C65.9683 111.788 65.7002 111.14 65.7002 110.466C65.7002 109.791 65.9683 109.144 66.4455 108.666C66.9227 108.189 67.5699 107.921 68.2448 107.921H129.315C129.989 107.921 130.637 108.189 131.114 108.666C131.591 109.144 131.859 109.791 131.859 110.466C131.859 111.14 131.591 111.788 131.114 112.265C130.637 112.742 129.989 113.01 129.315 113.01Z" fill="#DADADA"/>
<path d="M112.775 102.195H68.2453C67.5704 102.195 66.9232 101.927 66.446 101.449C65.9688 100.972 65.7007 100.325 65.7007 99.65C65.7007 98.9752 65.9688 98.328 66.446 97.8508C66.9232 97.3736 67.5704 97.1055 68.2453 97.1055H112.775C113.45 97.1055 114.097 97.3736 114.575 97.8508C115.052 98.328 115.32 98.9752 115.32 99.65C115.32 100.325 115.052 100.972 114.575 101.449C114.097 101.927 113.45 102.195 112.775 102.195Z" fill="#DADADA"/>
<path d="M150.589 127.325H23.9966C22.563 127.323 21.1886 126.753 20.1749 125.739C19.1612 124.725 18.591 123.351 18.5894 121.917V27.4502C18.591 26.0166 19.1612 24.6422 20.1749 23.6285C21.1886 22.6148 22.563 22.0446 23.9966 22.043H150.589C152.023 22.0446 153.397 22.6148 154.411 23.6285C155.425 24.6422 155.995 26.0166 155.996 27.4502V121.917C155.995 123.351 155.425 124.725 154.411 125.739C153.397 126.753 152.023 127.323 150.589 127.325ZM23.9966 22.6791C22.7317 22.6805 21.5189 23.1837 20.6245 24.0781C19.7301 24.9725 19.2269 26.1853 19.2255 27.4502V121.917C19.2269 123.182 19.7301 124.395 20.6245 125.29C21.5189 126.184 22.7317 126.687 23.9966 126.689H150.589C151.854 126.687 153.067 126.184 153.961 125.29C154.856 124.395 155.359 123.182 155.36 121.917V27.4502C155.359 26.1853 154.856 24.9725 153.961 24.0781C153.067 23.1837 151.854 22.6805 150.589 22.6791H23.9966Z" fill="black"/>
<g clip-path="url(#clip0_628_3723)">
<circle cx="22.0034" cy="22" r="14" fill="white"/>
<path d="M22.0033 3.66675C11.8649 3.66675 3.66992 11.8617 3.66992 22.0001C3.66992 32.1384 11.8649 40.3334 22.0033 40.3334C32.1416 40.3334 40.3366 32.1384 40.3366 22.0001C40.3366 11.8617 32.1416 3.66675 22.0033 3.66675ZM31.1699 28.5818L28.5849 31.1668L22.0033 24.5851L15.4216 31.1668L12.8366 28.5818L19.4183 22.0001L12.8366 15.4184L15.4216 12.8334L22.0033 19.4151L28.5849 12.8334L31.1699 15.4184L24.5883 22.0001L31.1699 28.5818Z" fill="#FF6B6B"/>
</g>
<defs>
<clipPath id="clip0_628_3723">
<rect width="44" height="44" fill="white" transform="translate(0.00341797)"/>
</clipPath>
</defs>
</svg>
