<svg width="24" height="24" viewBox="0 0 24 24" fill="none" xmlns="http://www.w3.org/2000/svg">
<path fill-rule="evenodd" clip-rule="evenodd" d="M19.5 4.5H3V6.8775L8.5575 12.4425L9 12.8775V19.5H12V18H13.5V19.5C13.5 20.3284 12.8284 21 12 21H9C8.17157 21 7.5 20.3284 7.5 19.5V13.5L1.9425 7.9425C1.65897 7.66065 1.49968 7.27728 1.5 6.8775V4.5C1.5 3.67157 2.17157 3 3 3H19.5V4.5Z" fill="#525252"/>
<path fill-rule="evenodd" clip-rule="evenodd" d="M18 6.75C15.075 6.75 12.75 9.075 12.75 12C12.75 14.925 15.075 17.25 18 17.25C20.925 17.25 23.25 14.925 23.25 12C23.25 9.075 20.925 6.75 18 6.75ZM20.025 14.625L18 12.6L15.975 14.625L15.375 14.025L17.4 12L15.375 9.975L15.975 9.375L18 11.4L20.025 9.375L20.625 9.975L18.6 12L20.625 14.025L20.025 14.625Z" fill="#525252"/>
<path opacity="0.01" fill-rule="evenodd" clip-rule="evenodd" d="M17.4 12L15.375 9.975L15.975 9.375L18 11.4L20.025 9.375L20.625 9.975L18.6 12L20.625 14.025L20.025 14.625L18 12.6L15.975 14.625L15.375 14.025L17.4 12Z" fill="#525252"/>
</svg>
