<svg width="20" height="20" viewBox="0 0 20 20" fill="none" xmlns="http://www.w3.org/2000/svg">
<path d="M16.1917 10.8167C16.225 10.55 16.25 10.2834 16.25 10C16.25 9.71669 16.225 9.45002 16.1917 9.18335L17.95 7.80835C18.1083 7.68335 18.15 7.45835 18.05 7.27502L16.3833 4.39169C16.3083 4.25835 16.1667 4.18335 16.0167 4.18335C15.9667 4.18335 15.9167 4.19169 15.875 4.20835L13.8 5.04169C13.3667 4.70835 12.9 4.43335 12.3917 4.22502L12.075 2.01669C12.05 1.81669 11.875 1.66669 11.6667 1.66669H8.33332C8.12499 1.66669 7.94999 1.81669 7.92499 2.01669L7.60832 4.22502C7.09999 4.43335 6.63332 4.71669 6.19999 5.04169L4.12499 4.20835C4.07499 4.19169 4.02499 4.18335 3.97499 4.18335C3.83332 4.18335 3.69166 4.25835 3.61666 4.39169L1.94999 7.27502C1.84165 7.45835 1.89165 7.68335 2.04999 7.80835L3.80832 9.18335C3.77499 9.45002 3.74999 9.72502 3.74999 10C3.74999 10.275 3.77499 10.55 3.80832 10.8167L2.04999 12.1917C1.89165 12.3167 1.84999 12.5417 1.94999 12.725L3.61666 15.6084C3.69166 15.7417 3.83332 15.8167 3.98332 15.8167C4.03332 15.8167 4.08332 15.8084 4.12499 15.7917L6.19999 14.9584C6.63332 15.2917 7.09999 15.5667 7.60832 15.775L7.92499 17.9834C7.94999 18.1834 8.12499 18.3334 8.33332 18.3334H11.6667C11.875 18.3334 12.05 18.1834 12.075 17.9834L12.3917 15.775C12.9 15.5667 13.3667 15.2834 13.8 14.9584L15.875 15.7917C15.925 15.8084 15.975 15.8167 16.025 15.8167C16.1667 15.8167 16.3083 15.7417 16.3833 15.6084L18.05 12.725C18.15 12.5417 18.1083 12.3167 17.95 12.1917L16.1917 10.8167ZM14.5417 9.39169C14.575 9.65002 14.5833 9.82502 14.5833 10C14.5833 10.175 14.5667 10.3584 14.5417 10.6084L14.425 11.55L15.1667 12.1334L16.0667 12.8334L15.4833 13.8417L14.425 13.4167L13.5583 13.0667L12.8083 13.6334C12.45 13.9 12.1083 14.1 11.7667 14.2417L10.8833 14.6L10.75 15.5417L10.5833 16.6667H9.41666L9.25832 15.5417L9.12499 14.6L8.24165 14.2417C7.88332 14.0917 7.54999 13.9 7.21665 13.65L6.45832 13.0667L5.57499 13.425L4.51665 13.85L3.93332 12.8417L4.83332 12.1417L5.57499 11.5584L5.45832 10.6167C5.43332 10.3584 5.41665 10.1667 5.41665 10C5.41665 9.83335 5.43332 9.64169 5.45832 9.39169L5.57499 8.45002L4.83332 7.86669L3.93332 7.16669L4.51665 6.15835L5.57499 6.58335L6.44165 6.93335L7.19165 6.36669C7.54999 6.10002 7.89165 5.90002 8.23332 5.75835L9.11665 5.40002L9.24999 4.45835L9.41666 3.33335H10.575L10.7333 4.45835L10.8667 5.40002L11.75 5.75835C12.1083 5.90835 12.4417 6.10002 12.775 6.35002L13.5333 6.93335L14.4167 6.57502L15.475 6.15002L16.0583 7.15835L15.1667 7.86669L14.425 8.45002L14.5417 9.39169ZM9.99999 6.66669C8.15832 6.66669 6.66665 8.15835 6.66665 10C6.66665 11.8417 8.15832 13.3334 9.99999 13.3334C11.8417 13.3334 13.3333 11.8417 13.3333 10C13.3333 8.15835 11.8417 6.66669 9.99999 6.66669ZM9.99999 11.6667C9.08332 11.6667 8.33332 10.9167 8.33332 10C8.33332 9.08335 9.08332 8.33335 9.99999 8.33335C10.9167 8.33335 11.6667 9.08335 11.6667 10C11.6667 10.9167 10.9167 11.6667 9.99999 11.6667Z" fill="white"/>
</svg>
